<?xml version="1.0" encoding="UTF-8"?>
<svg id="uuid-ee10dc72-6306-4b5a-82d9-5d7178ba6e90" data-name="Ebene 1" xmlns="http://www.w3.org/2000/svg" width="900px" viewBox="0 0 1133.86 437.17">
  <defs>
    <style>
      .uuid-c4d7d1bf-3251-4090-8267-2953c6d323a1 {
        fill: white;
        stroke-width: 0px;
      }
    </style>
  </defs>
  <path class="uuid-c4d7d1bf-3251-4090-8267-2953c6d323a1" d="m139.75,319c38.63,32.52,93.89,45.45,143.9,54.37,67.43,12.03,136.64,15.29,205.19,15.83,66.54.52,133.12-2.18,199.44-7.1,51.38-3.8,102.9-8.74,153.66-17.18,59.12-9.83,118.83-24.23,171.94-50.72,46.14-22.99,87.93-59.61,92.7-110.22,4.97-52.65-25.62-103.08-71.87-132.36-50.15-31.78-113.39-43.47-172.86-49.44-100.85-10.16-203.68-2.5-303.83,10.46-57.96,7.47-115.62,17.49-172.18,31.42-56.52,13.92-112.53,31.75-163.59,58.37-42.15,21.97-82.39,52-103.03,93.33-18.08,36.21-17.11,80.36,3.34,115.56,19.98,34.42,57.68,56.41,95.83,70.85,47.57,18.03,99.47,25.88,150.4,30.42,104.73,9.32,211.36,3.38,315.57-8.4,35.19-3.96,69.89-8.78,104.33-16.54,52.4-11.81,104.37-25.78,154.83-43.42,50.67-17.72,102.24-39.31,143.56-72.28,32-25.51,55.71-61.72,43.56-101.62-7.27-23.92-24.65-43.19-42.9-60.8-18.94-18.26-40.79-33.64-64.19-46.75-52.99-29.64-113.2-47.42-173.45-59.53C712.18-4.43,567.65-4.15,427.68,7.31c-63.27,5.17-126.37,13.02-188.7,24.36-62.85,11.43-129.22,24.74-183.85,56.86-20.47,12.03-39.16,28.05-49.06,48.8-7.94,16.62-7.67,35.4-1.63,52.45,15.55,43.9,60.33,77.04,99.97,102.27,51.88,33.03,110.07,58.39,169.66,77.13,55.44,17.47,112.38,25.3,170.58,29.95,71.83,5.74,144.51,6.48,216.22-1.08,66.46-7.01,137.12-21.7,191.82-59.04,29.93-20.42,61.81-48.2,64.43-84.63,2.9-40.37-35.95-64.73-71.28-79.31-4.65-1.93-12.46,5.53-6.48,8.01,30.58,12.63,64.14,36.82,64.07,70.64-.05,31.56-27.94,55.47-52.69,73.63-53.01,38.98-124.99,52.34-190.75,59.24-71.58,7.52-144.4,5.91-216.03-.06-28.24-2.35-56.65-5.16-84.53-10.01-29.15-5.07-57.73-12.83-85.67-21.96-59.37-19.39-116.95-45.74-168.03-79.82-36.99-24.68-80.58-58.73-89.39-102.44-9.54-47.31,41.86-76.32,81.99-92.43,57.32-23.01,121.13-33.85,182.5-43.45C416.96,15.15,556.9,7.16,694.69,15.97c68.36,4.37,136.71,13.48,202.58,31.19,56.62,15.21,112.23,37.46,157.87,72.44,35.45,27.16,75.19,67.71,63.22,113.68-10.65,40.75-57.31,68.07-94.27,86.97-50,25.54-104.84,43.22-159.45,58.37-40.53,11.24-81.94,22.03-123.8,28.13-93.98,13.69-189.76,20.81-284.89,19.34-54.82-.85-110.03-4.71-163.64-15.62-44.48-9.05-90-23.24-125.33-50.61-32.09-24.85-48.81-60.89-46.75-99.43,2.33-43.42,30.96-79.31,67.13-105.29,44.06-31.65,97.25-51.69,149.96-67.54,56.99-17.15,115.89-28.84,174.96-37.96,97.89-15.11,197.97-24.06,297.27-19.78,62.03,2.67,126.07,10.56,182.99,34.62,25.47,10.76,49.35,25.88,67.25,45.89,18.45,20.6,28.88,46.33,32.76,72.63,3.54,24.12-1.8,48.51-15.84,69.17-14.08,20.69-35.34,36.27-57.76,48.8-51.35,28.66-112,42.9-170.46,53.1-50.69,8.84-102.19,14.04-153.55,18.18-67.11,5.39-134.51,8.3-201.91,8.1-66.76-.2-134.03-3.31-199.9-13.89-50.47-8.1-107.26-20.66-146.7-52.7-2.99-2.43-10.04,2.38-6.68,5.21h0Z"/>
</svg>