<?xml version="1.0" encoding="UTF-8"?>
<svg id="uuid-09249d2c-ef86-4e88-b65c-05286139cf31" data-name="Ebene 1" xmlns="http://www.w3.org/2000/svg" width="50px" viewBox="0 0 649.31 547.53">
  <defs>
    <style>
      .uuid-58c0cea3-3cda-4ac0-9041-fd060244c3b9 {
        fill: #010101;
        stroke-width: 0px;
      }
    </style>
  </defs>
  <path id="uuid-f6f12d1c-c853-49e1-bb82-cbd2beb7e29f" data-name="path12" class="uuid-58c0cea3-3cda-4ac0-9041-fd060244c3b9" d="m31.64,505.75c-9.28-2.44-14.47-3.36-19.32-5.16-8.86-3.28-11.76-16.1-4.83-22.22,24.81-22.01,48.92-44.92,75.01-65.29,42.35-33.08,86.04-64.44,129.21-96.48,18.34-13.62,36.79-27.13,58.21-42.95-18.81-16.8-35.46-33.95-54.34-48.14-48.45-36.39-97.82-71.58-146.98-107.01-11.87-8.55-12.16-16.82-.22-25.84,7.79-5.88,15.33-12.08,24.6-19.42-4.21-3.37-10.03-9.17-16.88-13.3-17.46-10.54-23.07-19.3-16.61-28.05,6.18-8.36,27.48-9.02,37.92-.36,6.93,5.74,12.16,13.55,19.17,19.17,47.63,38.23,95.15,76.63,143.5,113.93,23.73,18.31,49.35,34.17,73.79,51.62,6.45,4.6,10.79,6.27,18,.58,58.99-46.47,119.09-91.57,177.27-139.02,25.57-20.85,47.53-46.1,70.93-69.57,9.33-9.36,28.38-11.21,39.9-3.2,12.57,8.72,12.24,18.68.38,28.51-33.71,27.94-67.06,56.34-101.52,85.38,9.08,11.84,7.74,19.53-4.04,29.42-45.32,38.07-89.15,77.9-134.57,117.99,14.64,11.66,30.62,23.83,45.98,36.73,33.23,27.9,66.4,55.89,99.08,84.41,18.47,16.13,36.42,32.96,53.67,50.41,6.05,6.14,10.75,14.63,13.08,22.9.84,2.93-6.46,10.64-11.34,12.2-15.98,5.14-28.2-1.28-39.64-13.57-31.43-33.68-64-66.3-96.21-99.26-.85-.88-2.78-.73-7.75-1.86,13.12,21.53,27.31,37.51,45.78,50.67,6.88,4.9,12.42,15.01,13.53,23.41.65,4.91-8.68,11.14-14.09,17.44,13.74,17.87,28.56,37.78,44.12,57.08,7.36,9.12,3.4,17.26-3.09,21.84-4.83,3.41-13.86,2.78-20.39,1.23-4.53-1.08-8.44-6.36-11.8-10.44-41.02-49.73-84.92-96.59-134.1-138.51-20.21-17.23-38.51-36.72-59.12-56.53-34.29,26.54-68.25,52.52-101.87,78.91-46.84,36.77-93.5,73.8-140.14,110.83-8.81,7-18.16,13.67-25.59,21.98-11.23,12.55-24.57,13.04-38.83,9.14-4.52-1.24-11.62-5.96-11.45-8.68.36-5.58,3.75-12.08,7.94-16.02,5.61-5.26,13.17-8.5,23.69-14.91h0Zm314.46-199.95c20.72,19.3,40.68,37.86,60.62,56.43,1.47-1.4,2.94-2.8,4.41-4.19-15.91-21.72-31.8-43.46-48.22-65.91-6.24,5.07-10.32,8.39-16.81,13.67Zm-79.45-85.41c-1.06.98-2.14,1.97-3.21,2.94,11.22,10.18,22.42,20.36,33.64,30.54,1.74-2.04,3.49-4.07,5.23-6.09-11.88-9.13-23.77-18.26-35.67-27.39Z"/>
</svg>